<svg width="512" height="512" viewBox="-25 -25 180 180" xmlns="http://www.w3.org/2000/svg">
  <g transform="translate(128, 0) scale(-1, 1)">
    <path fill="#000000" d="M64 128c-35.346 0 -64 -28.654 -64 -64s28.654 -64 64 -64s64 28.654 64 64s-28.654 64 -64 64m0 -115.2c-28.277 0 -51.2 22.923 -51.2 51.2s22.923 51.2 51.2 51.2s51.2 -22.923 51.2 -51.2s-22.923 -51.2 -51.2 -51.2"></path>
    <path fill="#000000" d="M55.04 72.96c-5.12 -5.12 -17.92 -36.48 -17.92 -36.48s31.36 12.8 36.48 17.92c5.12 5.12 5.12 12.8 0 17.92c-5.76 5.76 -13.44 5.76 -18.56 0.64"></path>
  </g>
</svg>